<?xml version="1.0" standalone="no"?>
<!DOCTYPE svg PUBLIC "-//W3C//DTD SVG 20010904//EN"
 "http://www.w3.org/TR/2001/REC-SVG-20010904/DTD/svg10.dtd">
<svg version="1.0" xmlns="http://www.w3.org/2000/svg"
 width="700.000000pt" height="700.000000pt" viewBox="0 0 700.000000 700.000000"
 preserveAspectRatio="xMidYMid meet">
<metadata>
Created by potrace 1.14, written by Peter Selinger 2001-2017
</metadata>
<g transform="translate(0.000000,700.000000) scale(0.100000,-0.100000)"
fill="#000000" stroke="none">
<path d="M3240 6581 c-38 -38 -41 -94 -7 -131 92 -101 51 -340 -83 -480 -42
-45 -51 -49 -152 -74 -125 -30 -186 -61 -245 -122 -57 -60 -89 -117 -106 -189
-23 -105 -3 -215 53 -294 18 -24 30 -45 27 -47 -2 -2 -29 -11 -61 -19 -280
-73 -401 -370 -244 -602 l28 -41 -53 -12 c-197 -46 -327 -201 -327 -391 0 -79
28 -165 71 -220 l29 -37 -66 -16 c-135 -34 -223 -104 -281 -225 l-37 -76 0
-197 -1 -198 -73 0 c-74 0 -116 -13 -143 -46 -19 -23 -21 -1020 -2 -1064 19
-47 54 -57 186 -58 65 0 120 -1 121 -3 2 -2 56 -164 120 -359 65 -195 120
-362 123 -370 4 -8 7 -17 8 -20 2 -11 67 -206 72 -220 4 -8 7 -17 8 -20 7 -28
62 -185 77 -220 100 -228 206 -347 366 -412 l57 -23 764 -3 c512 -2 782 1 816
8 163 34 304 161 401 360 28 58 135 355 162 450 8 29 61 186 80 240 3 8 6 17
7 20 1 3 4 12 8 20 3 8 45 134 93 280 48 146 88 267 90 268 1 2 56 4 121 4
135 1 156 6 181 46 16 27 17 70 17 539 0 472 -2 511 -18 537 -23 35 -54 46
-126 46 l-58 0 2 177 c2 129 -1 190 -11 224 -18 60 -78 149 -126 187 l-37 29
39 44 c178 199 122 498 -115 610 -33 16 -67 29 -77 29 -15 0 -15 4 -1 48 22
71 13 193 -19 264 -45 97 -132 176 -230 207 -21 7 -40 16 -42 20 -3 4 2 30 10
57 16 52 14 138 -6 206 -28 97 -140 211 -241 245 l-56 19 14 39 c8 22 14 63
15 90 6 198 -125 359 -324 397 -59 11 -66 15 -61 33 39 174 -51 357 -216 438
l-66 32 -213 3 -212 3 -30 -30z"/>
</g>
</svg>
